<svg width="200" height="120" viewBox="0 0 200 120" fill="none" xmlns="http://www.w3.org/2000/svg">
<rect width="40" height="40" transform="translate(13.5 40)" fill="black"/>
<path d="M44.6431 58.4841V71.6238C44.6431 71.8285 44.477 72 44.2666 72H39.9534C39.7486 72 39.5769 71.834 39.5769 71.6238V65.101C39.5769 64.9903 39.4884 64.9018 39.3776 64.9018H32.8663C29.8654 64.9018 27.4236 67.3361 27.4236 70.3347V71.6238C27.4236 71.8285 27.2575 72 27.0471 72H22.7339C22.5291 72 22.3574 71.834 22.3574 71.6238V70.3347C22.3574 67.5353 23.4482 64.9018 25.4193 62.9267C27.4015 60.9405 30.0425 59.8506 32.8608 59.8506H39.062C39.3444 59.8506 39.5769 59.6183 39.5769 59.3361V58.4896C39.5769 55.4965 37.1352 53.0622 34.1398 53.0567H32.8386C30.7845 53.0567 28.9296 54.1909 27.9939 56.0166C27.9109 56.177 27.7503 56.2766 27.5731 56.2766L22.9609 56.3264C22.8613 56.3264 22.7727 56.2822 22.7118 56.2047C22.6509 56.1272 22.6287 56.0277 22.6509 55.9336C22.6619 55.9004 22.6675 55.8672 22.673 55.8396C23.8745 51.2254 28.0548 48 32.8386 48H34.1398C36.958 48 39.5991 49.0954 41.5813 51.0816C43.5524 53.0567 44.6431 55.6902 44.6431 58.4841Z" fill="white"/>
<path d="M139.656 61.7053H142.68V53.1393C142.68 48.9004 139.242 45.437 134.992 45.437C130.742 45.437 127.303 48.9004 127.303 53.1393V61.7053H130.319V53.1393C130.319 50.5483 132.391 48.4421 134.992 48.4421C137.593 48.4421 139.665 50.5483 139.665 53.1393V61.7053H139.656ZM116.661 45.4722C112.13 45.4722 108.453 49.1471 108.453 53.6769C108.453 58.2066 112.13 61.8815 116.661 61.8815C121.193 61.8815 124.87 58.2066 124.87 53.6769C124.87 49.1471 121.193 45.4722 116.661 45.4722ZM116.582 58.753C113.734 58.753 111.433 56.4529 111.433 53.6064C111.433 50.7599 113.734 48.4597 116.582 48.4597C119.43 48.4597 121.731 50.7599 121.731 53.6064C121.731 56.4441 119.43 58.753 116.582 58.753ZM96.0741 45.4987H92.9882C89.2586 45.4987 86.2697 48.5126 86.2697 52.1963V61.767H89.2851V52.2051C89.2851 50.1694 90.9427 48.5126 92.9794 48.5126H96.0653V45.4987H96.0741ZM101.426 42H98.4105V55.5892C98.4105 58.9909 101.17 61.7405 104.574 61.7405H106.037V58.7266H104.574C102.819 58.7266 101.426 57.3341 101.426 55.5892V48.5126H106.037V45.4987H101.426V42ZM83.7657 61.767V52.2051C83.7657 48.5126 80.7856 45.5075 77.0561 45.5075V45.5163H76.2008V45.5075C73.062 45.5075 70.4522 47.6401 69.7028 50.5131C69.694 50.5572 69.6675 50.6453 69.6675 50.6453L72.8592 50.61C72.8592 50.61 72.8857 50.5483 72.9033 50.5219C73.5117 49.3322 74.7549 48.5126 76.192 48.5126V48.5038H77.0472V48.5126C79.0928 48.5126 80.7415 50.1606 80.7415 52.2051V53.6857H76.2185C72.4889 53.6857 69.5 56.6996 69.5 60.3834V61.7758H72.5154V60.3834C72.5154 58.3476 74.1729 56.6908 76.2096 56.6908H80.7415V61.767H83.7657ZM170.259 45.4987C167.147 45.4987 163.902 47.411 163.902 50.7422C163.902 53.3949 165.983 54.4612 168.152 54.9195C169.025 55.1133 173.601 55.4658 173.601 56.6027C173.601 57.5457 172.596 58.8676 170.259 58.8676C168.082 58.8676 166.918 57.3782 166.918 56.6027V56.6115H163.902C163.911 59.6166 167.085 61.8815 170.259 61.8815C173.539 61.8815 176.616 59.8458 176.616 56.6027C176.616 54.0118 174.474 53.0423 172.331 52.5929C171.361 52.399 166.909 52.1435 166.909 50.751C166.909 49.7816 168.011 48.5214 170.25 48.5214C172.261 48.5214 173.592 50.046 173.592 50.751V51.0771H176.607V50.751C176.616 47.7283 173.178 45.4987 170.259 45.4987ZM186.5 61.7405V58.7266H185.036C183.282 58.7266 181.889 57.3341 181.889 55.5892V48.5126H186.5V45.4987H181.889V42H178.873V55.5892C178.873 58.9909 181.633 61.7405 185.036 61.7405H186.5ZM153.225 45.4722C148.693 45.4722 145.017 49.1471 145.017 53.6769C145.017 58.2066 148.693 61.8815 153.225 61.8815C156.761 61.8815 159.776 59.6431 160.931 56.5146H157.395C156.47 57.8629 154.909 58.753 153.146 58.753C150.845 58.753 148.905 57.246 148.244 55.175H161.293C161.381 54.6903 161.434 54.1968 161.434 53.6857C161.434 49.1471 157.757 45.4722 153.225 45.4722ZM148.199 52.1875C148.817 50.0372 150.8 48.4597 153.146 48.4597C155.5 48.4597 157.475 50.0372 158.092 52.1875H148.199ZM69.5 71.0644H71.7571V77.859H72.7622V71.0644H75.037V70.0862H69.5V71.0644ZM83.9332 74.4132H87.169V73.4438H83.9332V71.0556H87.4424V70.0774H82.9105V77.8414H87.4953V76.8632H83.9332V74.4132ZM99.2129 70.941C99.7419 70.941 100.218 71.0644 100.659 71.32C101.091 71.5755 101.417 71.9192 101.638 72.3422L102.528 71.8223C102.202 71.2494 101.743 70.7824 101.153 70.4475C100.562 70.1038 99.9182 69.9364 99.2129 69.9364C98.0491 69.9364 97.088 70.3241 96.3298 71.0996C95.5715 71.8752 95.1924 72.8269 95.1924 73.9638C95.1924 75.0918 95.5715 76.0524 96.3298 76.8279C97.088 77.6034 98.0491 77.9912 99.2129 77.9912C99.9182 77.9912 100.562 77.8149 101.153 77.4712C101.743 77.1275 102.202 76.6693 102.528 76.0876L101.638 75.5765C101.417 75.9995 101.091 76.3344 100.659 76.59C100.227 76.8455 99.7419 76.9689 99.2129 76.9689C98.3312 76.9689 97.6082 76.6781 97.0439 76.1053C96.4885 75.5324 96.2063 74.8098 96.2063 73.955C96.2063 73.0913 96.4885 72.3687 97.0439 71.787C97.6082 71.2318 98.3312 70.941 99.2129 70.941ZM115.277 73.3821H111.548V70.0862H110.525V77.8502H111.548V74.3515H115.277V77.8502H116.282V70.0862H115.277V73.3821ZM129.552 75.9202L125.567 70.0862H124.773V77.8502H125.796V72.0514L129.746 77.8502H130.566V70.0862H129.543V75.9202H129.552ZM142.68 69.9452C141.569 69.9452 140.626 70.3329 139.859 71.1173C139.092 71.9016 138.704 72.8534 138.704 73.9726C138.704 75.0918 139.092 76.0436 139.859 76.8279C140.626 77.6122 141.569 78 142.68 78C143.791 78 144.734 77.6122 145.502 76.8279C146.277 76.0436 146.657 75.0918 146.657 73.9726C146.657 72.8446 146.269 71.8928 145.502 71.1173C144.734 70.3329 143.791 69.9452 142.68 69.9452ZM144.796 76.1141C144.232 76.6957 143.527 76.9865 142.68 76.9865C141.842 76.9865 141.137 76.6957 140.564 76.1141C140 75.5324 139.718 74.8186 139.718 73.9638C139.718 73.1089 140 72.3863 140.564 71.8047C141.128 71.223 141.834 70.9322 142.68 70.9322C143.518 70.9322 144.223 71.223 144.796 71.8047C145.36 72.3863 145.643 73.1089 145.643 73.9638C145.643 74.8186 145.36 75.5324 144.796 76.1141ZM159.697 74.9244C159.653 74.8098 159.582 74.704 159.485 74.5983C159.388 74.4925 159.3 74.4044 159.229 74.3251C159.159 74.2546 159.044 74.1753 158.894 74.096C158.744 74.0166 158.63 73.955 158.542 73.9109C158.454 73.8668 158.312 73.814 158.127 73.7435C157.942 73.673 157.801 73.6289 157.713 73.5936C157.625 73.5584 157.475 73.5055 157.263 73.435C156.672 73.2411 156.249 73.0561 156.011 72.8798C155.773 72.7035 155.65 72.448 155.65 72.1043C155.65 71.7518 155.782 71.4698 156.038 71.2583C156.293 71.0556 156.628 70.9498 157.043 70.9498C157.88 70.9498 158.462 71.3464 158.789 72.1483L159.644 71.646C159.415 71.1349 159.08 70.7295 158.63 70.4122C158.18 70.1038 157.651 69.9452 157.043 69.9452C156.373 69.9452 155.8 70.139 155.332 70.5356C154.865 70.9322 154.627 71.4698 154.627 72.1395C154.627 72.4215 154.68 72.6683 154.777 72.8974C154.874 73.1177 154.988 73.3028 155.112 73.435C155.235 73.576 155.42 73.7082 155.676 73.8316C155.932 73.9638 156.143 74.0519 156.311 74.1136C156.479 74.1753 156.725 74.2546 157.043 74.3692C157.695 74.5807 158.154 74.7745 158.436 74.9596C158.718 75.1447 158.85 75.4179 158.85 75.788C158.85 76.1493 158.709 76.4401 158.436 76.6605C158.154 76.8808 157.757 76.9865 157.228 76.9865C156.161 76.9865 155.473 76.5195 155.174 75.5765L154.292 76.0876C154.495 76.6781 154.856 77.1452 155.359 77.4889C155.87 77.8326 156.479 78 157.193 78C157.986 78 158.621 77.7973 159.115 77.3919C159.609 76.9865 159.847 76.449 159.847 75.7704C159.847 75.6118 159.829 75.4531 159.794 75.3121C159.776 75.1623 159.741 75.0301 159.697 74.9244ZM170.392 73.7346L168.302 70.0862H167.165L169.871 74.704V77.859H170.894V74.7217L173.619 70.095H172.481L170.392 73.7346ZM186.456 75.3033C186.421 75.1623 186.385 75.0301 186.341 74.9155C186.297 74.801 186.227 74.6952 186.13 74.5895C186.033 74.4837 185.945 74.3956 185.874 74.3163C185.803 74.2458 185.689 74.1665 185.539 74.0871C185.389 74.0078 185.274 73.9461 185.186 73.9021C185.098 73.858 184.957 73.8051 184.772 73.7346C184.587 73.6641 184.446 73.6201 184.357 73.5848C184.269 73.5496 184.119 73.4967 183.908 73.4262C183.317 73.2323 182.894 73.0472 182.656 72.871C182.418 72.6947 182.294 72.4392 182.294 72.0955C182.294 71.743 182.427 71.461 182.682 71.2494C182.938 71.0468 183.273 70.941 183.687 70.941C184.525 70.941 185.107 71.3376 185.433 72.1395L186.288 71.6372C186.059 71.1261 185.724 70.7207 185.274 70.4034C184.825 70.095 184.296 69.9364 183.687 69.9364C183.017 69.9364 182.444 70.1302 181.977 70.5268C181.51 70.9234 181.272 71.461 181.272 72.1307C181.272 72.4127 181.324 72.6595 181.421 72.8886C181.518 73.1089 181.633 73.294 181.757 73.4262C181.88 73.5672 182.065 73.6994 182.321 73.8228C182.576 73.955 182.788 74.0431 182.956 74.1048C183.123 74.1665 183.37 74.2458 183.687 74.3603C184.34 74.5718 184.798 74.7657 185.08 74.9508C185.363 75.1359 185.495 75.4091 185.495 75.7792C185.495 76.1405 185.354 76.4313 185.08 76.6517C184.798 76.872 184.402 76.9777 183.873 76.9777C182.806 76.9777 182.118 76.5106 181.818 75.5677L180.937 76.0788C181.139 76.6693 181.501 77.1364 182.003 77.48C182.515 77.8237 183.123 77.9912 183.837 77.9912C184.631 77.9912 185.266 77.7885 185.759 77.3831C186.253 76.9777 186.491 76.4401 186.491 75.7616C186.5 75.6029 186.491 75.4531 186.456 75.3033Z" fill="black"/>
</svg>
