<svg width="200" height="68" viewBox="0 0 200 68" fill="none" xmlns="http://www.w3.org/2000/svg">
<rect width="40" height="40" transform="translate(13.5 14)" fill="#F4F4F5"/>
<path d="M44.6412 32.4841V45.6238C44.6412 45.8285 44.4751 46 44.2647 46H39.9515C39.7466 46 39.575 45.834 39.575 45.6238V39.101C39.575 38.9903 39.4864 38.9018 39.3757 38.9018H32.8644C29.8634 38.9018 27.4217 41.3361 27.4217 44.3347V45.6238C27.4217 45.8285 27.2556 46 27.0452 46H22.732C22.5271 46 22.3555 45.834 22.3555 45.6238V44.3347C22.3555 41.5353 23.4462 38.9018 25.4173 36.9267C27.3995 34.9405 30.0406 33.8506 32.8588 33.8506H39.0601C39.3424 33.8506 39.575 33.6183 39.575 33.3361V32.4896C39.575 29.4965 37.1333 27.0622 34.1378 27.0567H32.8367C30.7825 27.0567 28.9277 28.1909 27.992 30.0166C27.9089 30.177 27.7483 30.2766 27.5712 30.2766L22.959 30.3264C22.8593 30.3264 22.7707 30.2822 22.7098 30.2047C22.6489 30.1272 22.6268 30.0277 22.6489 29.9336C22.66 29.9004 22.6655 29.8672 22.6711 29.8396C23.8726 25.2254 28.0529 22 32.8367 22H34.1378C36.9561 22 39.5971 23.0954 41.5793 25.0816C43.5504 27.0567 44.6412 29.6902 44.6412 32.4841Z" fill="#18181B"/>
<path d="M139.656 35.7053H142.68V27.1393C142.68 22.9004 139.242 19.437 134.992 19.437C130.742 19.437 127.303 22.9004 127.303 27.1393V35.7053H130.319V27.1393C130.319 24.5483 132.391 22.4421 134.992 22.4421C137.593 22.4421 139.665 24.5483 139.665 27.1393V35.7053H139.656ZM116.661 19.4722C112.13 19.4722 108.453 23.1471 108.453 27.6769C108.453 32.2066 112.13 35.8815 116.661 35.8815C121.193 35.8815 124.87 32.2066 124.87 27.6769C124.87 23.1471 121.193 19.4722 116.661 19.4722ZM116.582 32.753C113.734 32.753 111.433 30.4529 111.433 27.6064C111.433 24.7599 113.734 22.4597 116.582 22.4597C119.43 22.4597 121.731 24.7599 121.731 27.6064C121.731 30.4441 119.43 32.753 116.582 32.753ZM96.0741 19.4987H92.9882C89.2586 19.4987 86.2697 22.5126 86.2697 26.1963V35.767H89.2851V26.2051C89.2851 24.1694 90.9427 22.5126 92.9794 22.5126H96.0653V19.4987H96.0741ZM101.426 16H98.4105V29.5892C98.4105 32.9909 101.17 35.7405 104.574 35.7405H106.037V32.7266H104.574C102.819 32.7266 101.426 31.3341 101.426 29.5892V22.5126H106.037V19.4987H101.426V16V16ZM83.7657 35.767V26.2051C83.7657 22.5126 80.7856 19.5075 77.0561 19.5075V19.5163H76.2008V19.5075C73.062 19.5075 70.4522 21.6401 69.7028 24.5131C69.694 24.5572 69.6675 24.6453 69.6675 24.6453L72.8592 24.61C72.8592 24.61 72.8857 24.5483 72.9033 24.5219C73.5117 23.3322 74.7549 22.5126 76.192 22.5126V22.5038H77.0472V22.5126C79.0928 22.5126 80.7415 24.1606 80.7415 26.2051V27.6857H76.2185C72.4889 27.6857 69.5 30.6996 69.5 34.3834V35.7758H72.5154V34.3834C72.5154 32.3476 74.1729 30.6908 76.2096 30.6908H80.7415V35.767H83.7657V35.767ZM170.259 19.4987C167.147 19.4987 163.902 21.411 163.902 24.7422C163.902 27.3949 165.983 28.4612 168.152 28.9195C169.025 29.1133 173.601 29.4659 173.601 30.6027C173.601 31.5457 172.596 32.8676 170.259 32.8676C168.082 32.8676 166.918 31.3782 166.918 30.6027V30.6115H163.902C163.911 33.6166 167.085 35.8815 170.259 35.8815C173.539 35.8815 176.616 33.8458 176.616 30.6027C176.616 28.0117 174.474 27.0423 172.331 26.5929C171.361 26.399 166.909 26.1435 166.909 24.751C166.909 23.7816 168.011 22.5214 170.25 22.5214C172.261 22.5214 173.592 24.046 173.592 24.751V25.0771H176.607V24.751C176.616 21.7283 173.178 19.4987 170.259 19.4987ZM186.5 35.7405V32.7266H185.036C183.282 32.7266 181.889 31.3341 181.889 29.5892V22.5126H186.5V19.4987H181.889V16H178.873V29.5892C178.873 32.9909 181.633 35.7405 185.036 35.7405H186.5ZM153.225 19.4722C148.693 19.4722 145.017 23.1471 145.017 27.6769C145.017 32.2066 148.693 35.8815 153.225 35.8815C156.761 35.8815 159.776 33.6431 160.931 30.5146H157.395C156.47 31.8629 154.909 32.753 153.146 32.753C150.845 32.753 148.905 31.246 148.244 29.175H161.293C161.381 28.6903 161.434 28.1968 161.434 27.6857C161.434 23.1471 157.757 19.4722 153.225 19.4722ZM148.199 26.1875C148.817 24.0372 150.8 22.4597 153.146 22.4597C155.5 22.4597 157.475 24.0372 158.092 26.1875H148.199ZM69.5 45.0644H71.7571V51.859H72.7622V45.0644H75.037V44.0862H69.5V45.0644ZM83.9332 48.4132H87.169V47.4438H83.9332V45.0556H87.4424V44.0774H82.9105V51.8414H87.4953V50.8632H83.9332V48.4132ZM99.2129 44.941C99.7419 44.941 100.218 45.0644 100.659 45.32C101.091 45.5755 101.417 45.9192 101.638 46.3422L102.528 45.8223C102.202 45.2494 101.743 44.7824 101.153 44.4475C100.562 44.1038 99.9182 43.9364 99.2129 43.9364C98.0491 43.9364 97.088 44.3241 96.3298 45.0996C95.5715 45.8752 95.1924 46.8269 95.1924 47.9638C95.1924 49.0918 95.5715 50.0524 96.3298 50.8279C97.088 51.6034 98.0491 51.9912 99.2129 51.9912C99.9182 51.9912 100.562 51.8149 101.153 51.4712C101.743 51.1275 102.202 50.6693 102.528 50.0876L101.638 49.5765C101.417 49.9995 101.091 50.3344 100.659 50.59C100.227 50.8455 99.7419 50.9689 99.2129 50.9689C98.3312 50.9689 97.6082 50.6781 97.0439 50.1053C96.4885 49.5324 96.2063 48.8098 96.2063 47.955C96.2063 47.0913 96.4885 46.3687 97.0439 45.787C97.6082 45.2318 98.3312 44.941 99.2129 44.941ZM115.277 47.3821H111.548V44.0862H110.525V51.8502H111.548V48.3515H115.277V51.8502H116.282V44.0862H115.277V47.3821ZM129.552 49.9202L125.567 44.0862H124.773V51.8502H125.796V46.0514L129.746 51.8502H130.566V44.0862H129.543V49.9202H129.552ZM142.68 43.9452C141.569 43.9452 140.626 44.3329 139.859 45.1173C139.092 45.9016 138.704 46.8534 138.704 47.9726C138.704 49.0918 139.092 50.0436 139.859 50.8279C140.626 51.6122 141.569 52 142.68 52C143.791 52 144.734 51.6122 145.502 50.8279C146.277 50.0436 146.657 49.0918 146.657 47.9726C146.657 46.8446 146.269 45.8928 145.502 45.1173C144.734 44.3329 143.791 43.9452 142.68 43.9452ZM144.796 50.1141C144.232 50.6957 143.527 50.9865 142.68 50.9865C141.843 50.9865 141.137 50.6957 140.564 50.1141C140 49.5324 139.718 48.8186 139.718 47.9638C139.718 47.1089 140 46.3863 140.564 45.8047C141.128 45.223 141.834 44.9322 142.68 44.9322C143.518 44.9322 144.223 45.223 144.796 45.8047C145.36 46.3863 145.643 47.1089 145.643 47.9638C145.643 48.8186 145.36 49.5324 144.796 50.1141ZM159.697 48.9244C159.653 48.8098 159.582 48.704 159.485 48.5983C159.388 48.4925 159.3 48.4044 159.229 48.3251C159.159 48.2546 159.044 48.1753 158.894 48.096C158.744 48.0166 158.63 47.955 158.542 47.9109C158.454 47.8668 158.312 47.814 158.127 47.7435C157.942 47.673 157.801 47.6289 157.713 47.5936C157.625 47.5584 157.475 47.5055 157.263 47.435C156.672 47.2411 156.249 47.0561 156.011 46.8798C155.773 46.7035 155.65 46.448 155.65 46.1043C155.65 45.7518 155.782 45.4698 156.038 45.2583C156.293 45.0556 156.628 44.9498 157.043 44.9498C157.88 44.9498 158.462 45.3464 158.789 46.1483L159.644 45.646C159.415 45.1349 159.08 44.7295 158.63 44.4122C158.18 44.1038 157.651 43.9452 157.043 43.9452C156.373 43.9452 155.8 44.139 155.332 44.5356C154.865 44.9322 154.627 45.4698 154.627 46.1395C154.627 46.4215 154.68 46.6683 154.777 46.8974C154.874 47.1177 154.988 47.3028 155.112 47.435C155.235 47.576 155.42 47.7082 155.676 47.8316C155.932 47.9638 156.143 48.0519 156.311 48.1136C156.479 48.1753 156.725 48.2546 157.043 48.3692C157.695 48.5807 158.154 48.7745 158.436 48.9596C158.718 49.1447 158.85 49.4179 158.85 49.788C158.85 50.1493 158.709 50.4401 158.436 50.6605C158.154 50.8808 157.757 50.9865 157.228 50.9865C156.161 50.9865 155.473 50.5195 155.174 49.5765L154.292 50.0876C154.495 50.6781 154.856 51.1452 155.359 51.4889C155.87 51.8326 156.479 52 157.193 52C157.986 52 158.621 51.7973 159.115 51.3919C159.609 50.9865 159.847 50.449 159.847 49.7704C159.847 49.6118 159.829 49.4531 159.794 49.3121C159.776 49.1623 159.741 49.0301 159.697 48.9244ZM170.392 47.7346L168.302 44.0862H167.165L169.871 48.704V51.859H170.894V48.7217L173.619 44.095H172.481L170.392 47.7346ZM186.456 49.3033C186.421 49.1623 186.385 49.0301 186.341 48.9155C186.297 48.801 186.227 48.6952 186.13 48.5895C186.033 48.4837 185.945 48.3956 185.874 48.3163C185.803 48.2458 185.689 48.1665 185.539 48.0871C185.389 48.0078 185.274 47.9461 185.186 47.9021C185.098 47.858 184.957 47.8051 184.772 47.7346C184.587 47.6641 184.446 47.6201 184.357 47.5848C184.269 47.5496 184.119 47.4967 183.908 47.4262C183.317 47.2323 182.894 47.0472 182.656 46.871C182.418 46.6947 182.294 46.4392 182.294 46.0955C182.294 45.743 182.427 45.461 182.682 45.2494C182.938 45.0468 183.273 44.941 183.687 44.941C184.525 44.941 185.107 45.3376 185.433 46.1395L186.288 45.6372C186.059 45.1261 185.724 44.7207 185.274 44.4034C184.825 44.095 184.296 43.9364 183.687 43.9364C183.017 43.9364 182.444 44.1302 181.977 44.5268C181.51 44.9234 181.272 45.461 181.272 46.1307C181.272 46.4127 181.324 46.6595 181.421 46.8886C181.518 47.1089 181.633 47.294 181.757 47.4262C181.88 47.5672 182.065 47.6994 182.321 47.8228C182.576 47.955 182.788 48.0431 182.956 48.1048C183.123 48.1665 183.37 48.2458 183.687 48.3603C184.34 48.5718 184.798 48.7657 185.08 48.9508C185.363 49.1359 185.495 49.4091 185.495 49.7792C185.495 50.1405 185.354 50.4313 185.08 50.6517C184.798 50.872 184.402 50.9777 183.873 50.9777C182.806 50.9777 182.118 50.5106 181.818 49.5677L180.937 50.0788C181.139 50.6693 181.501 51.1364 182.003 51.48C182.515 51.8237 183.123 51.9912 183.837 51.9912C184.631 51.9912 185.266 51.7885 185.759 51.3831C186.253 50.9777 186.491 50.4401 186.491 49.7616C186.5 49.6029 186.491 49.4531 186.456 49.3033Z" fill="#F4F4F5"/>
</svg>
